<svg width="438.533" height="438.533" xmlns="http://www.w3.org/2000/svg">

 <g>
  <title>background</title>
  <rect fill="none" id="canvas_background" height="602" width="802" y="-1" x="-1"/>
 </g>
 <g>
  <title>Layer 1</title>
  <g id="svg_1">
   <path fill="#262b2e" id="svg_2" d="m409.133,109.203c-19.608,-33.592 -46.205,-60.189 -79.798,-79.796c-33.599,-19.606 -70.277,-29.407 -110.062,-29.407c-39.781,0 -76.47,9.801 -110.063,29.407c-33.595,19.604 -60.192,46.201 -79.8,79.796c-19.609,33.597 -29.41,70.286 -29.41,110.064c0,39.78 9.804,76.463 29.407,110.062c19.607,33.592 46.204,60.189 79.799,79.798c33.597,19.605 70.283,29.407 110.063,29.407s76.47,-9.802 110.065,-29.407c33.593,-19.602 60.189,-46.206 79.795,-79.798c19.603,-33.596 29.403,-70.284 29.403,-110.062c0.001,-39.782 -9.8,-76.472 -29.399,-110.064zm-47.393,150.314l-29.123,29.129c-3.621,3.614 -7.901,5.424 -12.847,5.424c-4.948,0 -9.236,-1.81 -12.847,-5.424l-87.654,-87.653l-87.646,87.653c-3.616,3.614 -7.898,5.424 -12.847,5.424c-4.95,0 -9.233,-1.81 -12.85,-5.424l-29.12,-29.129c-3.617,-3.607 -5.426,-7.898 -5.426,-12.847c0,-4.942 1.809,-9.227 5.426,-12.848l129.62,-129.616c3.617,-3.617 7.898,-5.424 12.847,-5.424s9.238,1.807 12.846,5.424l129.621,129.616c3.613,3.621 5.424,7.905 5.424,12.848c0,4.948 -1.807,9.239 -5.424,12.847z"/>
  </g>
  <g id="svg_3"/>
  <g id="svg_4"/>
  <g id="svg_5"/>
  <g id="svg_6"/>
  <g id="svg_7"/>
  <g id="svg_8"/>
  <g id="svg_9"/>
  <g id="svg_10"/>
  <g id="svg_11"/>
  <g id="svg_12"/>
  <g id="svg_13"/>
  <g id="svg_14"/>
  <g id="svg_15"/>
  <g id="svg_16"/>
  <g id="svg_17"/>
 </g>
</svg>