<?xml version="1.0" encoding="utf-8"?>
<svg id="Layer_1" data-name="Layer 1" viewBox="0 0 512 512" xmlns="http://www.w3.org/2000/svg">
  <defs>
    <style>.cls-1{fill:#141f38;}</style>
  </defs>
  <title>speech-bubble-7-outline</title>
  <path class="cls-1" d="M 448 435.441 C 469.214 435.418 486.4 418.215 486.4 397.001 L 486.4 166.601 C 486.378 145.402 469.199 128.223 448 128.201 L 66.2 128.201 L 58.7 120.701 L 25.6 87.601 L 25.6 397.001 C 25.6 418.215 42.786 435.418 64 435.441 L 448 435.441 M 448 461.001 L 64 461.001 C 28.654 461.001 0 432.347 0 397.001 L 0 68.791 C -0.006 58.912 8.042 50.923 17.92 51.001 C 22.607 51.004 27.095 52.897 30.37 56.251 L 76.8 102.641 L 448 102.641 C 483.346 102.641 512 131.294 512 166.641 L 512 397.001 C 512 432.347 483.346 461.001 448 461.001 Z" style="fill: rgba(255, 255, 255, 0.4);" transform="matrix(-1, 0, 0, -1, 511.999993, 512.001419)"/>
</svg>