<svg width="104" height="104" xmlns="http://www.w3.org/2000/svg">
 <!-- Created with Method Draw - http://github.com/duopixel/Method-Draw/ -->

 <g>
  <title>background</title>
  <rect fill="none" id="canvas_background" height="106" width="106" y="-1" x="-1"/>
  <g display="none" overflow="visible" y="0" x="0" height="100%" width="100%" id="canvasGrid">
   <rect fill="url(#gridpattern)" stroke-width="0" y="1" x="1" height="600" width="800"/>
  </g>
 </g>
 <g>
  <title>Layer 1</title>
  <g stroke="null" id="svg_5">
   <path fill="#262b2e" stroke="null" stroke-width="0" id="svg_4" d="m51.77215,0.30769c-28.59111,0 -51.77215,23.11215 -51.77215,51.6183c0,28.50615 23.18104,51.6183 51.77215,51.6183c28.59111,0 51.77215,-23.11215 51.77215,-51.6183c0,-28.50615 -23.18104,-51.6183 -51.77215,-51.6183zm10.78588,80.00494c-2.67081,1.04128 -4.79372,1.84353 -6.38591,2.38976c-1.59219,0.54623 -3.42408,0.81934 -5.5299,0.81934c-3.21866,0 -5.73537,-0.78521 -7.53298,-2.35559c-1.78052,-1.55333 -2.67081,-3.55047 -2.67081,-5.97435c0,-0.93881 0.0685,-1.8947 0.20547,-2.86768c0.11983,-0.99002 0.34239,-2.08247 0.63345,-3.32857l3.33849,-11.74385c0.29102,-1.12658 0.54785,-2.1849 0.75328,-3.19201c0.20547,-1.00711 0.29106,-1.92883 0.29106,-2.76526c0,-1.48503 -0.30816,-2.54336 -0.92451,-3.12371c-0.63345,-0.59744 -1.81475,-0.88764 -3.56105,-0.88764c-0.85601,0 -1.74629,0.13656 -2.65367,0.39258c-0.90738,0.27311 -1.67779,0.52918 -2.32838,0.76817l0.89028,-3.61877c2.17428,-0.88759 4.26296,-1.63868 6.26608,-2.27024c1.98595,-0.63157 3.8863,-0.95589 5.64973,-0.95589c3.20152,0 5.68396,0.78521 7.41311,2.32146c1.7292,1.53625 2.6023,3.55047 2.6023,6.00848c0,0.5121 -0.05132,1.41678 -0.17119,2.697c-0.11983,1.28022 -0.34239,2.45801 -0.66768,3.55047l-3.32135,11.70967c-0.27393,0.93885 -0.51362,2.01422 -0.73618,3.2091c-0.20547,1.19488 -0.3082,2.1166 -0.3082,2.73113c0,1.55333 0.34243,2.6287 1.04438,3.19201c0.68482,0.56327 1.90035,0.83638 3.62951,0.83638c0.80464,0 1.71206,-0.13656 2.73927,-0.40967c1.01011,-0.29015 1.74629,-0.52914 2.20855,-0.75104l-0.87315,3.61872zm-0.59922,-47.53865c-1.54083,1.43382 -3.40695,2.15077 -5.58127,2.15077c-2.17428,0 -4.05753,-0.71695 -5.6155,-2.15077c-1.55796,-1.43386 -2.32838,-3.17492 -2.32838,-5.20623c0,-2.03126 0.78755,-3.78945 2.32838,-5.24036c1.55796,-1.45091 3.44122,-2.16782 5.6155,-2.16782c2.17432,0 4.04044,0.71691 5.58127,2.16782c1.55796,1.45091 2.32838,3.2091 2.32838,5.24036c0,2.0313 -0.77041,3.77236 -2.32838,5.20623z"/>
  </g>
 </g>
</svg>